<svg xmlns="http://www.w3.org/2000/svg" version="1.1" viewBox="-5.0 -10.0 110.0 135.0">
 <path d="m29.105 77.879c-0.51172 0.65234-0.98438 1.332-1.5508 1.9375 0.10937 4.5547 1.3828 11.375 3.2852 15.523 0.29688 0.65234 0.61328 1.4219 1.1406 1.9258 0.72656 0.69141 2.1094 0.56641 3.0469 0.59375l0.70703 0.023437c0.023437-0.40625 0.18359-1.4492-0.078125-1.7656-0.30078-0.35938-0.91797-0.50391-1.2773-0.85938-1.5391-1.5234-1.8789-3.9648-1.9805-6.0352-0.10938-2.1523-0.11719-4.4219 0.4375-6.5195 0.73828-2.7812 2.1055-4.3477 3.4844-6.7109 0.16406-0.28516 0.32422-0.57422 0.48047-0.86328 0.15625-0.29297 0.30078-0.58594 0.44531-0.88281 0.14453-0.29688 0.27734-0.59375 0.40625-0.89844 0.12891-0.30469 0.25391-0.60547 0.37109-0.91406 0.11719-0.30469 0.23047-0.61719 0.33594-0.92969s0.20703-0.625 0.29688-0.94141c0.089844-0.3125 0.18359-0.63281 0.26172-0.95312s0.15625-0.64062 0.22266-0.96094c-1.2461-0.49609-2.7109-0.93359-3.8867-1.5352-1.3477 3.9609-3.582 7.4883-6.1484 10.762z"/>
 <path d="m80.043 12.555c-1.3359-0.76563-1.9531-2.293-3.043-3.3164-0.63672-0.59766-1.4961-1.0273-2.2734-1.4219 0.63672-1.5234 1.1289-2.9805 1.2539-4.6445 0.023437-0.30078 0.070312-0.65234-0.039063-0.94141-0.042968-0.10938-0.10938-0.21094-0.21875-0.26562-0.1875-0.085938-0.41406-0.015625-0.58594 0.066406-1.2305 0.58203-2.8242 2.2969-3.5586 3.4258-0.35938 0.55469-0.63672 1.1875-1.0234 1.7227 0.13281-2.0391 0.125-3.7148-0.47656-5.6992-0.13672-0.44531-0.26562-0.95312-0.58594-1.3008-0.11719-0.13281-0.20703-0.17969-0.38672-0.18359h-0.11719c-0.47266 0.38672-0.82031 0.99219-1.1484 1.5039-1.4961 2.3516-2.1719 4.293-2.4922 7.0703-3.1172 3.2656-3.2305 8.5703-3.1328 12.809 0.070312 2.1406 0.18359 4.2812 0.34375 6.418 0.3125 4.4023 1.2031 12.379-2.0312 15.809-1.2656 1.3438-3.0859 1.875-4.8867 1.918-2.8984 0.074218-6.5117-0.85156-9.3984-1.4102-5.9102-1.1445-13.688-1.6914-19.574-0.23047-0.73828-1.2969-1.7578-2.0391-3.2031-2.4336-1.7969-0.48828-3.8047-0.31641-5.4258 0.61719-1.4883 0.85938-2.5664 2.3477-2.9961 4.0039-0.38672 1.4883-0.32031 3.5977 0.49219 4.9492 0.20312 0.33203 0.49219 0.70312 0.89453 0.80078 0.20703 0.050782 0.45312 0.039063 0.63281-0.089843 0.21875-0.16016 0.32812-0.44531 0.41016-0.69141 0.11719-0.35937 0.21094-0.75391 0.39844-1.082 0.61328-1.082 1.9297-1.3125 3.0508-1.4727-0.48438 0.89844-0.93359 1.7969-1.2539 2.7734-1.2695 3.8711-0.97266 8.3672-0.12891 12.293 0.48047 2.2344 1.1211 4.4531 1.1055 6.7578-0.015625 1.8555-0.29297 3.8477-0.94922 5.5859-0.42578 1.1328-0.98437 2.2109-1.2734 3.3906-0.60547 2.4648 0.60547 10.105 1.1758 12.91 0.27734 1.3477 0.61328 2.6836 1.0078 4 0.30078 1.0117 0.59375 2.4844 1.6094 3.0156 0.94531 0.49219 2.6445 0.55859 3.7188 0.58594v-1.9648c-1.0508-0.5-1.8789-1.082-2.2891-2.2109-0.89062-2.457-0.60547-8.6445-0.0625-11.281 0.16797-0.81641 0.41406-1.6016 0.77344-2.3555 0.91406-1.9297 2.4531-3.6367 3.7617-5.3164 2.5508-3.2656 5.1953-7.3828 6.2812-11.422 3.9805 1.5391 7.9883 2.9023 12.195 3.6836 2.3203 0.46094 4.6562 0.84375 7.0039 1.1484 1.375 0.17969 2.7891 0.28125 4.1523 0.55469 1.1133 6.2578 1.7812 12.535 2.3867 18.859 0.18359 1.9062 0.35547 3.8086 0.51953 5.7188 0.078125 0.94141 0.078125 1.9766 0.25391 2.9023 0.09375 0.48828 0.34766 1.0273 0.76562 1.3164 0.69922 0.48437 3.1484 0.55859 4.0742 0.57812 0.054688-0.63672 0.20312-1.3633-0.24609-1.8984-0.26172-0.3125-0.64062-0.50781-0.95312-0.77344-0.85156-0.72266-0.74219-1.957-0.67578-2.9609 0.066406-1.0156 0.18359-2.0273 0.27734-3.0391 0.19141-2.3438 0.41406-4.6836 0.66797-7.0195 0.16406-1.5625 0.23047-3.4258 0.58203-4.9297 0.058594 1.5938 0.25391 3.1797 0.39844 4.7656l0.51172 6.125 0.35938 4.0117c0.070313 0.77344 0.09375 1.5898 0.25391 2.3516 0.078125 0.37891 0.25781 0.71875 0.53906 0.98828 0.23828 0.23438 0.54688 0.37891 0.86719 0.46875 0.83984 0.22656 2.6836 0.27344 3.6602 0.38672 0.066406-0.60938 0.25-1.3516-0.17969-1.8633-0.21484-0.25781-0.53906-0.45312-0.80078-0.66016-1.1758-0.91406-1.3008-1.6562-1.2188-3.0781 0.10938-1.7891 0.33203-3.582 0.50391-5.3672 0.32422-3.5977 0.67578-7.1914 1.0508-10.785 0.26172-2.4766 0.60547-4.9648 0.79297-7.4414 1.0195-1.0273 1.8906-2.1641 2.6914-3.3672 2.9609-4.4453 3.7344-8.9336 3.7109-14.188-0.027344-6.7812-1.457-13.484-3.0195-20.051-0.67188-2.8164-1.5273-5.7188-1.9414-8.5859-0.089843-0.63281-0.27734-1.9492 0.23828-2.4492 0.72656-0.70703 3.4531-0.87891 4.457-0.83203 1.668 0.070313 3.5938 1.2148 5.0508-0.085937 0.35938-0.32422 1.0547-1 1.0664-1.5156 0.003907-0.27734-0.13281-0.53906-0.23828-0.78516 0.49219-0.30859 0.83984-0.60938 0.97266-1.207 0.09375-0.41406 0.078125-0.98828-0.18359-1.3477-0.4375-0.60156-3.9805-1.7695-4.9023-2.3008zm-5.6406-0.11719c0 0.042969-0.003906 0.085938-0.015625 0.125-0.007813 0.042969-0.015625 0.085938-0.023438 0.125-0.011719 0.042969-0.023437 0.082031-0.039062 0.12109-0.015625 0.042968-0.03125 0.078125-0.050781 0.11719-0.20313 0.40234-0.52734 0.57812-0.9375 0.71094-0.26953 0.011719-0.51953 0.011719-0.77344-0.10156-0.32422-0.14453-0.57812-0.41406-0.6875-0.75391-0.011719-0.039062-0.023438-0.074219-0.03125-0.11328-0.007812-0.039063-0.015625-0.078125-0.019531-0.11719-0.003907-0.039062-0.003907-0.078125-0.003907-0.11719 0-0.042969 0-0.078125 0.003907-0.11719 0.003906-0.039062 0.007812-0.078125 0.015625-0.11719 0.007812-0.039063 0.015625-0.078125 0.027344-0.11328 0.011718-0.039063 0.023437-0.074219 0.039062-0.10938 0.015625-0.035156 0.03125-0.070312 0.050781-0.10937 0.21094-0.40625 0.55078-0.60156 0.96875-0.74609 0.25781-0.015625 0.50391 0.003906 0.74219 0.10938 0.039062 0.015625 0.074219 0.035156 0.10938 0.054687 0.035156 0.019532 0.070312 0.042969 0.10547 0.066406 0.03125 0.023438 0.066407 0.050782 0.097657 0.078126 0.03125 0.027343 0.0625 0.054687 0.089843 0.085937 0.027344 0.03125 0.054688 0.0625 0.078126 0.09375 0.023437 0.03125 0.050781 0.066406 0.070312 0.10156 0.023438 0.035156 0.042969 0.070312 0.0625 0.10937 0.019531 0.035157 0.03125 0.074219 0.050781 0.11328 0.015625 0.042968 0.027344 0.078125 0.039063 0.12109 0.011718 0.042968 0.019531 0.082031 0.023437 0.125 0.003907 0.042968 0.011719 0.085937 0.015625 0.125v0.12891z"/>
<text x="0.0" y="117.5" font-size="5.0" font-weight="bold" font-family="Arbeit Regular, Helvetica, Arial-Unicode, Arial, Sans-serif" fill="#000000">Created by NHA</text><text x="0.0" y="122.5" font-size="5.0" font-weight="bold" font-family="Arbeit Regular, Helvetica, Arial-Unicode, Arial, Sans-serif" fill="#000000">from Noun Project</text></svg>