<svg xmlns="http://www.w3.org/2000/svg" viewBox="0 0 32 40" x="0px" y="0px"><g data-name="Layer 14"><path d="M20.369,5.268l.98047-1.274,4.24081.3032.61162.88635L23.5744,6.40981Zm2.9845,1.67695L20.18227,5.81549l.2673,9.74233,5.77129,1.24487ZM20.466,16.15354l.199,7.254,3.49932.10259,2.09045-6.108Zm.4178-14.23616L20.11267,3.28l.03639,1.3245.77414-1.00583ZM9.53594,17.14807,8.154,20.426l4.57835,2.60463,1.62141-6.38171ZM8.077,25.968H9.92654l2.5144-2.43738L8.077,21.048ZM6.66683,19.21036l1.2891.19555.8017-1.90144ZM8.2055,26.54685l1.33044,3.53577h1.23625l-.9503-3.53577Zm6.76157-9.96123-1.67766,6.60563,6.79613.19933-.20088-7.31427Zm5.88109,13.497h1.06667L23.968,24.08374l-3.28706-.09638Z"/></g><text x="0" y="47" fill="#000000" font-size="5px" font-weight="bold" font-family="'Helvetica Neue', Helvetica, Arial-Unicode, Arial, Sans-serif">Created by The Icon Z</text><text x="0" y="52" fill="#000000" font-size="5px" font-weight="bold" font-family="'Helvetica Neue', Helvetica, Arial-Unicode, Arial, Sans-serif">from the Noun Project</text></svg>