<svg xmlns="http://www.w3.org/2000/svg" xmlns:xlink="http://www.w3.org/1999/xlink" version="1.1" x="0px" y="0px" viewBox="0 0 850.4 1063" style="enable-background:new 0 0 850.4 850.4;" xml:space="preserve"><g><path d="M459.6,378.6c0-11.3-2.4-19-7.6-24.2c-5-5-12.6-7.6-23.5-7.9c-0.1,0-0.3,0-0.4,0h-2.2c-0.1,0-0.3,0-0.4,0   c-11,0.3-18.5,2.9-23.5,7.9c-5.2,5.2-7.6,12.8-7.6,24.2c0,4.4-0.7,8.9-1.3,13.2c-1.3,8.4-2.5,16.4,2.3,21.6   c1.7,1.8,3.9,3.1,6.9,3.9c-0.5,0.4-0.9,0.9-0.9,1.6c0,0.3-0.5,8.3,5.4,14.6c4.5,4.8,11.3,7.2,20.3,7.2c9,0,15.8-2.4,20.2-7.2   c5.8-6.3,5.1-14.3,5.1-14.6c-0.1-0.6-0.4-1.1-0.8-1.5c3.1-0.9,5.5-2.2,7.2-4c4.8-5.2,3.6-13.1,2.3-21.6   C460.3,387.5,459.6,383,459.6,378.6z M448,419.2c0,0.1,0.5,6.5-4,11.4c-3.5,3.9-9.3,5.8-17,5.8c-7.7,0-13.5-2-17.1-5.8   c-4.6-4.9-4.3-11.3-4.3-11.4c0-0.4-0.1-0.8-0.3-1.2c4.1,0.7,9.2,0.7,15.5,0.2c0.4,0,0.8-0.2,1.1-0.4c0.7-0.6,3.3-2.6,5.1-5.1   c1.8,2.5,4.4,4.5,5.1,5.1c0.3,0.2,0.7,0.4,1.1,0.4c2.9,0.3,5.5,0.4,7.9,0.4c2.7,0,5-0.2,7.1-0.5C448,418.4,447.9,418.8,448,419.2z    M455.5,410.4c-3.1,3.3-10.1,4.5-21.3,3.5c-2.2-1.8-4.9-4.7-5-6.2c-0.2-3,0-14.7,0-17.4c1.4-2.4,7.4-12.7,10.1-16   c3.2-3.9,5.3-7,5.4-7.1c0.7-1,0.4-2.3-0.6-3c-1-0.7-2.3-0.4-3,0.6c0,0-2.1,3.1-5.2,6.8c-2.3,2.8-6.6,10-9,14.1   c-2.4-4.1-6.7-11.3-9-14.1c-3-3.7-5.1-6.8-5.2-6.8c-0.7-1-2-1.2-3-0.6c-1,0.7-1.2,2-0.6,3c0.1,0.1,2.2,3.3,5.4,7.1   c2.7,3.2,8.7,13.6,10.1,16c0,2.7,0.1,14.4,0,17.4c-0.1,1.5-2.8,4.4-5,6.2c-11.2,1-18.2-0.2-21.3-3.5c-3.4-3.6-2.4-10.3-1.2-18   c0.7-4.5,1.4-9.1,1.4-13.8c0-10.1,2-16.8,6.3-21.1c4.4-4.3,11.6-6.5,22.1-6.7c10.5,0.1,17.7,2.3,22.1,6.7c4.3,4.3,6.3,11,6.3,21.1   c0,4.7,0.7,9.4,1.4,13.8C457.9,400.1,459,406.8,455.5,410.4z"/><path d="M549.1,690.9c-2.9-19.3-15.2-30.9-19.9-34.8c2-2.8,5.6-8.8,8.1-19.3c1.7-7,2.1-20.5-0.6-34.6c-3.3-17.3-9.6-26.3-15-30.9   c4.6-3.3,8-9.4,10.3-18.1c2-7.6,2.3-14.4,2.3-14.7c1-25.4-8.8-36.5-12.9-40.1c1.9-3.3,5.4-11,5.5-25.2c0.1-16.9-6.4-33.1-14.9-38.4   c4.2-6.8,7.2-18,7.9-30.5c0.9-14.8-1.4-28.8-6.3-38.3c-8.3-16.2-22.5-19.2-23.1-19.3c-0.1,0-0.3,0-0.4,0c0-1.5-0.1-2.8-0.1-3.9   c2.8-3.8,2.5-8.8,1.7-11.3c0,0,0-0.1,0-0.1c-0.1-0.3-0.7-1.9-2.2-3.4c10.5-1,15,3.4,15.2,3.6c0.6,0.7,1.7,0.9,2.5,0.4   s1.3-1.3,1.1-2.3c-0.1-0.6-2.3-12.8-9.5-18.9c6.8-1.1,11.5,0.1,13.2,1c0.9,0.5,2.1,0.3,2.8-0.6c0.6-0.9,0.5-2.1-0.3-2.8   c-0.1-0.1-1-1-2.5-2.1c4.5-5.2,13.7-17.8,19.7-38.9c6.4-22.4,7.1-46.9,2.1-72.8c-4-20.5-13.2-30.9-20.3-36c-2.1-1.5-4.8-1.9-7.2-1   c-2.4,0.9-4.2,3-4.8,5.5c-1.1,5-2.1,13.2-3.3,24.7c0,0,0,0,0,0c0,0,0,0,0,0c-2.5,23.6-11.7,43.7-19,56.4   c-6.8,11.9-13.3,19.7-15,21.7c-1,0.2-2.1,0.4-3.1,0.7c3.9-11.8,4.4-15.7,4.4-15.9c0.1-0.8-0.3-1.6-0.9-2c-0.7-0.4-1.5-0.5-2.2-0.1   c-1.5,0.8-12.3,6.5-18.6,11.7c0.1-8.6,2.2-11.4,2.4-11.7l0.1-0.1c0.8-0.8,0.8-2.1,0-3c-0.8-0.8-2.1-0.9-3-0.1   c-0.1,0.1-0.2,0.2-0.3,0.3l-18.2,18.7l-15.8-18.3c-0.3-0.4-0.5-0.6-0.7-0.8c-0.8-0.7-2.1-0.7-2.9,0.1c-0.8,0.8-0.8,2.1-0.1,2.9   l0.3,0.3c0.5,0.7,2.2,3.7,2.3,11.5c-6.4-5.2-17.1-10.9-18.6-11.7c-0.7-0.4-1.5-0.3-2.2,0.1c-0.7,0.4-1,1.2-0.9,2   c0,0.2,0.5,4,4.4,15.9c-0.4-0.1-0.9-0.2-1.3-0.3c-2.1-2.5-29.7-34.7-34.3-78.4c0,0,0,0,0,0c0,0,0,0,0,0   c-1.2-11.5-2.2-19.7-3.3-24.7c-0.6-2.5-2.4-4.6-4.8-5.5c-2.4-0.9-5.1-0.6-7.2,1c-7.1,5.1-16.3,15.5-20.3,36   c-5,25.9-4.3,50.3,2.1,72.8c5.8,20.2,14.5,32.7,19.2,38.2c-1.9,1.5-3.2,2.6-3.3,2.8c-0.8,0.7-0.9,2-0.3,2.8   c0.6,0.9,1.8,1.1,2.8,0.6c1.4-0.8,6-2.2,13.2-1c-7.2,6.1-9.4,18.3-9.5,18.9c-0.2,0.9,0.3,1.8,1.1,2.3c0.3,0.2,0.6,0.2,1,0.2   c0.6,0,1.1-0.2,1.6-0.7c0.1-0.1,4.9-4.9,16.5-3.5c-1.3,1.4-1.9,3-2,3.2c0,0,0,0.1,0,0.1c-0.6,2-1,5.6,0.3,8.9   c-0.1,1.3-0.1,3.6-0.2,6.7c-0.5-0.4-1.1-0.6-1.8-0.5c-0.6,0.1-14.8,3.2-23.1,19.3c-4.9,9.6-7.2,23.5-6.3,38.3   c0.8,12.6,3.7,23.7,7.9,30.5c-8.5,5.2-15.1,21.5-14.9,38.4c0.1,14.2,3.5,21.9,5.5,25.2c-4.1,3.6-13.9,14.8-12.9,40.1   c0,0.3,0.3,7.1,2.3,14.7c2.3,8.7,5.7,14.8,10.3,18.1c-5.4,4.7-11.6,13.6-15,30.9c-2.7,14.1-2.3,27.5-0.6,34.6   c2.5,10.5,6.1,16.5,8.1,19.3c-4.7,3.8-17,15.4-19.9,34.8c-0.2,1.2,0.6,2.3,1.8,2.4c0.1,0,0.2,0,0.3,0c1,0,1.9-0.8,2.1-1.8   c3.3-21.7,19.8-33.2,19.9-33.3c0.5-0.4,0.9-0.9,0.9-1.6s-0.2-1.3-0.6-1.7c-0.1-0.1-5.2-5.5-8.5-19.1c-1.5-6.4-2-19.4,0.6-32.8   c2.8-14.7,8.5-25.4,15.8-30.2c0.7-0.4,1-1.2,1-2c-0.1-0.8-0.6-1.5-1.3-1.8c-6-2.5-9.2-10.6-10.9-16.9c-1.9-7.2-2.2-13.8-2.2-13.8   c-0.6-15.1,2.9-24.5,5.9-29.8c3.3-5.7,6.7-7.9,6.7-7.9c0.5-0.3,0.9-0.9,1-1.5c0.1-0.6-0.1-1.3-0.5-1.7c-0.1-0.1-5.6-6.7-5.7-24.3   c-0.1-17.9,7.6-33.1,14.5-35.5c0.7-0.2,1.2-0.7,1.4-1.4c0.2-0.7,0.1-1.4-0.4-1.9c-4.5-5.7-7.7-17.4-8.5-30.3   c-0.8-14.1,1.3-27.2,5.9-36.1c7.3-14.3,19.6-17,20.1-17.1c0.3-0.1,0.6-0.2,0.9-0.4c-0.2,7.2-0.2,17.3,0.1,27.7   c0.9,27.5,4.1,45,9.6,52c12.2,15.7,29.6,23.6,51.6,23.6h6c22.1,0,39.4-8,51.6-23.6c9.9-12.7,10.2-57.6,9.7-79.2   c2.6,0.7,13.1,4.4,19.5,16.9c4.6,8.9,6.7,22.1,5.9,36.1c-0.8,13-4,24.6-8.5,30.3c-0.4,0.5-0.6,1.3-0.4,1.9c0.2,0.7,0.7,1.2,1.4,1.4   c7,2.4,14.7,17.6,14.5,35.5c-0.1,17.6-5.7,24.2-5.7,24.3c-0.4,0.5-0.6,1.1-0.5,1.7c0.1,0.6,0.5,1.2,1,1.5c0,0,3.5,2.2,6.7,7.9   c3,5.3,6.5,14.7,5.9,29.8c0,0.1-0.3,6.7-2.2,13.9c-1.7,6.3-4.9,14.4-10.9,16.9c-0.7,0.3-1.2,1-1.3,1.8s0.3,1.5,1,2   c7.4,4.8,13,15.6,15.8,30.2c2.6,13.4,2.1,26.4,0.6,32.8c-3.3,13.7-8.4,19.1-8.5,19.1c-0.4,0.4-0.7,1.1-0.6,1.7   c0.1,0.6,0.4,1.2,0.9,1.6c0.2,0.1,16.6,11.6,19.9,33.3c0.2,1.1,1.1,1.8,2.1,1.8c0.1,0,0.2,0,0.3,0   C548.5,693.1,549.3,692,549.1,690.9z M505.7,164.1c0.3-1.2,1.1-2.1,2.2-2.5c1.1-0.4,2.2-0.3,3.2,0.4c6.4,4.7,14.9,14.3,18.6,33.4   c4.9,25.2,4.2,49-2,70.8c-5.9,20.6-14.9,32.7-19.1,37.5c-4.9-3.5-12.3-7.6-19.7-7.8c2.8-8.9,17.9-11.1,18-11.1   c1.1-0.2,2-1.2,1.8-2.3c-0.1-1.1-1.1-2-2.3-1.9l-13,0.9c2.2-5.3,6.5-16.3,9-30.2c1.5-8.1,1.9-21.2,1.3-39   c-0.4-12.3-1.2-22.6-1.3-24.1C503.7,176.8,504.6,168.9,505.7,164.1z M482.8,246.5c8.6-14.9,13.5-28.7,16.4-40.2   c0.6,14.2,0.9,33.4-1,44.3c-2.8,15.5-8,27.7-9.6,31.3l-8.9,0.6l4-16.7c0.2-0.7,0-1.4-0.5-1.9c-0.5-0.5-1.2-0.8-1.9-0.7   c-0.3,0-5.1,0.7-10.7,1.6C473.7,260.8,478.1,254.6,482.8,246.5z M382.8,265c-6.3-1.1-11.9-1.9-12.3-1.9c-0.7-0.1-1.4,0.2-1.9,0.7   c-0.5,0.5-0.7,1.2-0.5,1.9l4,16.7l-7.5-0.5c-1.6-3.5-6.8-15.7-9.6-31.4c-2-10.8-1.6-30-1-44.2c4.1,16.5,10.8,30.5,16.4,40.2   C375.2,254.8,379.8,261.1,382.8,265z M325.6,266.1c-6.2-21.8-6.9-45.6-2-70.8c3.7-19.1,12.2-28.7,18.6-33.4   c0.9-0.7,2.1-0.8,3.2-0.4c1.1,0.4,1.9,1.3,2.2,2.5c1.1,4.8,2,12.8,3.2,24.1c-0.1,1.5-0.9,11.9-1.3,24.1c-0.6,17.8-0.1,30.9,1.3,39   c2.5,14,6.8,25.1,9,30.3l-14.5-1c-1.2-0.1-2.2,0.8-2.3,1.9c-0.1,1.1,0.7,2.2,1.8,2.3c0.2,0,15.2,2.2,18,11.1   c-7,0.2-13.9,3.9-18.8,7.2C339.7,297.9,331.2,285.9,325.6,266.1z M349,325.4c1.6-4.9,4.8-11.9,10.5-13.5c0.9-0.3,1.5-1.1,1.5-2   s-0.6-1.8-1.5-2.1c-4.8-1.4-8.9-1.9-12.2-1.8c4.9-3.2,11.7-6.5,17.9-5.8c0.6,0.1,1.3-0.1,1.7-0.6c0.5-0.4,0.7-1,0.7-1.7   c-0.3-4.8-2.9-9-7.7-12.2l14.7,1.1c0.7,0,1.3-0.2,1.8-0.7c0.4-0.5,0.6-1.2,0.5-1.9l-3.9-16.5c4.8,0.7,14.3,2.2,20.4,3.9   c0.8,0.2,1.6,0,2.1-0.6c0.5-0.6,0.7-1.4,0.5-2.2c-2.4-6.8-3.7-11.4-4.5-14.3c5.9,3.4,14.4,8.6,16.8,11.8c0.5,0.7,1.5,1,2.3,0.8   c0.9-0.2,1.5-1,1.5-1.9c0.2-3.7,0.2-6.7,0-9.2l11.1,12.9c0.4,0.5,1,0.7,1.6,0.7c0.6,0,1.2-0.2,1.6-0.6l13.5-13.9   c-0.3,2.7-0.4,6-0.1,10.1c0.1,0.9,0.7,1.7,1.5,1.9c0.9,0.2,1.8-0.1,2.3-0.8c2.3-3.2,10.9-8.5,16.8-11.8c-0.8,2.9-2.1,7.5-4.5,14.3   c-0.3,0.8-0.1,1.6,0.5,2.2c0.5,0.6,1.4,0.8,2.1,0.6c6.1-1.7,15.5-3.2,20.4-3.9l-3.9,16.5c-0.2,0.7,0,1.4,0.5,1.9   c0.4,0.5,1.1,0.8,1.8,0.7l14.7-1.1c-4.8,3.2-7.4,7.3-7.7,12.2c0,0.6,0.2,1.2,0.7,1.7c0.5,0.4,1.1,0.6,1.7,0.6   c6.2-0.7,13,2.6,17.9,5.8c-3.3,0-7.3,0.4-12.2,1.8c-0.9,0.3-1.5,1.1-1.5,2.1s0.6,1.8,1.5,2c5.7,1.6,8.9,8.6,10.5,13.5   c-4.8-2-13.3-3.5-26.3,1.1c-11.7,4.2-16.1-2.3-20-8c-2.1-3-4.2-6-7.2-6c-0.5,0-0.9,0.1-1.4,0.2c-6.3,1.9-37.5,1.9-43.8,0   c-3.9-1.1-6.3,2.4-8.7,5.8c-3.9,5.7-8.3,12.1-20,8C362.3,321.9,353.8,323.4,349,325.4z M485.8,378c-1.1,33-5.3,45.2-8.7,49.5   c-11.3,14.6-27.6,22-48.3,22h-6c-20.7,0-36.9-7.4-48.3-22c-3.4-4.3-7.6-16.5-8.7-49.5c-0.4-13.2-0.2-25.7,0-32.7   c0.1,0.1,0.3,0.2,0.4,0.3c1.6,1,3.4,1.4,5.2,1.4c6.4,0,12.7-5.2,13-5.5c0.7-0.6,1-1.6,0.6-2.5c-0.1-0.2-1.6-3.5-4.5-6.9   c10,0.7,14.9-6.5,18.1-11.1c1.4-2.1,3-4.4,4-4.2c7.1,2.1,39.1,2.1,46.2,0c0.9-0.3,2.5,2.1,4,4.2c3,4.4,7.7,11.1,16.8,11.1   c0.9,0,1.9-0.1,2.9-0.2c-3,3.4-4.6,6.9-4.7,7.1c-0.4,0.9-0.1,1.9,0.6,2.5c0.3,0.3,6.7,5.5,13,5.5c1.4,0,2.8-0.3,4.2-0.9   C486,353.2,486.2,365.3,485.8,378z"/></g><text x="0" y="865.4" fill="#000000" font-size="5px" font-weight="bold" font-family="'Helvetica Neue', Helvetica, Arial-Unicode, Arial, Sans-serif">Created by Hye Jee Kim</text><text x="0" y="870.4" fill="#000000" font-size="5px" font-weight="bold" font-family="'Helvetica Neue', Helvetica, Arial-Unicode, Arial, Sans-serif">from the Noun Project</text></svg>